<?xml version="1.0" encoding="UTF-8"?> <svg xmlns="http://www.w3.org/2000/svg" width="155" height="155" viewBox="0 0 155 155" fill="none"> <path fill-rule="evenodd" clip-rule="evenodd" d="M143.727 0H11.9696C8.94864 0 6.05142 1.20006 3.91529 3.33619C1.77917 5.47232 0.579102 8.36953 0.579102 11.3905L0.579102 143.17C0.579102 146.19 1.77917 149.088 3.91529 151.224C6.05142 153.36 8.94864 154.56 11.9696 154.56H143.749C146.77 154.56 149.667 153.36 151.803 151.224C153.939 149.088 155.139 146.19 155.139 143.17V11.3905C155.128 8.3693 153.921 5.47549 151.782 3.34124C149.644 1.20699 146.748 0.00576558 143.727 0V0Z" fill="#F7B948"></path> <path opacity="0.36" fill-rule="evenodd" clip-rule="evenodd" d="M144.078 0H12.2769C10.7839 0.0028738 9.30616 0.299777 7.92796 0.873758C6.54976 1.44774 5.29812 2.28756 4.24448 3.34526C3.19084 4.40296 2.35586 5.65784 1.78719 7.03824C1.21852 8.41864 0.927318 9.89753 0.930197 11.3905V143.17C0.927317 144.664 1.21925 146.145 1.78928 147.527C2.35932 148.909 3.19626 150.165 4.25222 151.222C5.30818 152.28 6.56241 153.12 7.94314 153.693C9.32387 154.265 10.804 154.56 12.2988 154.56H144.1C145.594 154.56 147.075 154.265 148.455 153.693C149.836 153.12 151.09 152.28 152.146 151.222C153.202 150.165 154.039 148.909 154.609 147.527C155.179 146.145 155.471 144.664 155.468 143.17V11.3905C155.463 8.37131 154.261 5.47746 152.126 3.34259C149.991 1.20771 147.097 0.0057894 144.078 0V0Z" fill="url(#paint0_radial)"></path> <path fill-rule="evenodd" clip-rule="evenodd" d="M146.662 73.841C129.971 84.7934 111.264 68.5838 100.662 65.32C91.0241 62.3629 80.1813 74.0819 78.2317 76.2724C76.2822 74.0819 65.4393 62.4067 55.8013 65.32C45.1555 68.5838 26.427 84.8153 9.80126 73.841C-6.82446 62.8667 4.14983 81.7486 5.52983 83.7419C10.169 90.9695 16.5386 96.925 24.0613 101.069C32.4289 105.625 53.4136 112.218 78.2755 92.3067C103.137 112.021 124.122 105.45 132.468 101.069C140.001 96.9317 146.38 90.9752 151.021 83.7419C152.314 81.7486 163.354 62.8667 146.662 73.841Z" fill="#131313"></path> <path fill-rule="evenodd" clip-rule="evenodd" d="M153.475 70.5115C152.715 72.0209 151.867 73.4838 150.934 74.8924C146.304 82.1359 139.923 88.0952 132.38 92.2191C124.035 96.7972 103.05 103.369 78.1879 83.4572C53.326 103.171 32.3412 96.6 23.9736 92.2191C16.4416 88.0884 10.0691 82.1302 5.44218 74.8924C4.51389 73.4808 3.66557 72.0182 2.90123 70.5115C-3.10068 69.5257 4.32504 82.1429 5.44218 83.7638C10.0691 91.0016 16.4416 96.9598 23.9736 101.091C32.3412 105.669 53.326 112.24 78.1879 92.3286C103.05 112.152 124.035 105.581 132.38 101.091C139.923 96.9666 146.304 91.0074 150.934 83.7638C152.051 82.1429 159.476 69.5038 153.475 70.5115Z" fill="#3C3C3B"></path> <defs> <radialGradient id="paint0_radial" cx="0" cy="0" r="1" gradientUnits="userSpaceOnUse" gradientTransform="translate(-18.7622 -76.7981) scale(166.476)"> <stop stop-color="white"></stop> <stop offset="1" stop-opacity="0"></stop> </radialGradient> </defs> </svg> 